<?xml version="1.0" encoding="utf-8"?>
<!-- Generator: Adobe Illustrator 23.0.3, SVG Export Plug-In . SVG Version: 6.00 Build 0)  -->
<svg version="1.1" id="Layer_1" xmlns="http://www.w3.org/2000/svg" xmlns:xlink="http://www.w3.org/1999/xlink" x="0px" y="0px"
	 viewBox="0 0 43.714 43.714" style="enable-background:new 0 0 43.714 43.714;" xml:space="preserve">
<style type="text/css">
	.st0{fill:url(#SVGID_2_);}
	.st1{clip-path:url(#SVGID_3_);fill:url(#SVGID_4_);}
	.st2{opacity:0.4;clip-path:url(#SVGID_3_);fill:url(#SVGID_6_);}
	.st3{fill:url(#SVGID_7_);}
	.st4{fill:#42D392;}
	.st5{fill:url(#SVGID_8_);}
	.st6{fill:#647EFF;}
	.st7{fill:#FDFDFE;}
	.st8{fill:url(#SVGID_9_);}
	.st9{fill:url(#SVGID_10_);}
	.st10{fill:url(#SVGID_11_);}
	.st11{fill:url(#SVGID_12_);}
	.st12{fill:url(#SVGID_13_);}
	.st13{fill:url(#SVGID_14_);}
	.st14{fill:url(#SVGID_15_);}
	.st15{fill:url(#SVGID_16_);}
	.st16{fill:url(#SVGID_17_);}
	.st17{fill:url(#SVGID_18_);}
	.st18{fill:url(#SVGID_19_);}
	.st19{fill:url(#SVGID_20_);}
	.st20{clip-path:url(#SVGID_22_);}
	.st21{fill:url(#SVGID_23_);}
	.st22{fill:url(#SVGID_24_);}
	.st23{fill:url(#SVGID_25_);}
	.st24{fill:url(#SVGID_26_);}
	.st25{fill:url(#SVGID_27_);}
	.st26{fill:none;}
	.st27{clip-path:url(#SVGID_29_);fill:url(#SVGID_30_);}
	.st28{clip-path:url(#SVGID_29_);}
	.st29{fill:url(#SVGID_31_);}
	.st30{fill:url(#SVGID_32_);}
	.st31{clip-path:url(#SVGID_29_);fill:url(#SVGID_33_);}
	.st32{clip-path:url(#SVGID_29_);fill:#FFFFFF;}
	.st33{clip-path:url(#SVGID_35_);fill:url(#SVGID_36_);}
	.st34{clip-path:url(#SVGID_35_);}
	.st35{fill:url(#SVGID_37_);}
	.st36{fill:#FFFFFF;}
	.st37{fill:url(#SVGID_38_);}
	.st38{fill:url(#SVGID_39_);}
	.st39{clip-path:url(#SVGID_41_);}
	.st40{fill:url(#SVGID_42_);}
	.st41{fill:url(#SVGID_43_);}
	.st42{fill:url(#SVGID_44_);}
	.st43{fill:url(#SVGID_45_);}
</style>
<linearGradient id="SVGID_2_" gradientUnits="userSpaceOnUse" x1="19.4495" y1="7.8571" x2="19.4495" y2="35.8571">
	<stop  offset="0" style="stop-color:#42D392"/>
	<stop  offset="0.133" style="stop-color:#43D095"/>
	<stop  offset="0.2476" style="stop-color:#47C8A0"/>
	<stop  offset="0.3554" style="stop-color:#4EB9B2"/>
	<stop  offset="0.4592" style="stop-color:#57A5CB"/>
	<stop  offset="0.559" style="stop-color:#628BEB"/>
	<stop  offset="0.5998" style="stop-color:#687FFA"/>
	<stop  offset="0.6719" style="stop-color:#7D82E1"/>
	<stop  offset="0.8254" style="stop-color:#B489A0"/>
	<stop  offset="1" style="stop-color:#F8924F"/>
</linearGradient>
<path class="st0" d="M28.499,16.057l-4.1-8.2l-14,28h8.2L28.499,16.057z"/>
<linearGradient id="SVGID_3_" gradientUnits="userSpaceOnUse" x1="23.9745" y1="20.5821" x2="38.8245" y2="35.4321">
	<stop  offset="0" style="stop-color:#F8924F"/>
	<stop  offset="0" style="stop-color:#F09158"/>
	<stop  offset="0" style="stop-color:#DB8E72"/>
	<stop  offset="0" style="stop-color:#B8899B"/>
	<stop  offset="0" style="stop-color:#8883D4"/>
	<stop  offset="0" style="stop-color:#647EFF"/>
	<stop  offset="0.1285" style="stop-color:#6C83F4"/>
	<stop  offset="0.3533" style="stop-color:#8290D7"/>
	<stop  offset="0.6477" style="stop-color:#A5A5A8"/>
	<stop  offset="0.9972" style="stop-color:#D5C268"/>
	<stop  offset="1" style="stop-color:#D5C267"/>
</linearGradient>
<path style="fill:url(#SVGID_3_);" d="M38.399,35.857l-9.9-19.8l-4.1,8.1l5.8,11.7H38.399z"/>
<linearGradient id="SVGID_4_" gradientUnits="userSpaceOnUse" x1="10.091" y1="21.2556" x2="26.5616" y2="21.2556">
	<stop  offset="0" style="stop-color:#F8924F"/>
	<stop  offset="0" style="stop-color:#F09158"/>
	<stop  offset="0" style="stop-color:#DB8E72"/>
	<stop  offset="0" style="stop-color:#B8899B"/>
	<stop  offset="0" style="stop-color:#8883D4"/>
	<stop  offset="0" style="stop-color:#647EFF"/>
	<stop  offset="0.1285" style="stop-color:#6C77F4"/>
	<stop  offset="0.3533" style="stop-color:#8265D7"/>
	<stop  offset="0.6477" style="stop-color:#A547A8"/>
	<stop  offset="0.9972" style="stop-color:#D51D68"/>
	<stop  offset="1" style="stop-color:#D51D67"/>
</linearGradient>
<path style="fill:url(#SVGID_4_);" d="M18.116,23.528c-0.039,0.458-0.071,0.918-0.117,1.375c-0.04,0.403-0.226,0.715-0.629,0.845
	c-0.38,0.123-0.701,0.004-0.976-0.278c-1.969-2.015-3.944-4.025-5.91-6.043c-0.568-0.583-0.518-1.106,0.139-1.585
	c2.253-1.644,4.511-3.281,6.763-4.926c0.34-0.248,0.69-0.359,1.081-0.15c0.408,0.219,0.516,0.582,0.474,1.022
	c-0.071,0.744-0.127,1.49-0.189,2.235c-0.06,0.713-0.057,0.698,0.672,0.83c1.176,0.213,2.326,0.523,3.409,1.039
	c3.466,1.65,4.692,5.303,2.93,8.728c-0.624,1.212-1.51,2.196-2.629,2.972c-0.339,0.236-0.684,0.398-1.06,0.09
	c-0.355-0.291-0.223-0.634-0.089-0.981c0.373-0.968,0.67-1.952,0.673-3.008c0.004-1.299-0.565-2.256-1.665-2.916
	c-0.748-0.449-1.575-0.686-2.415-0.886c-0.235-0.056-0.338-0.001-0.35,0.259C18.206,22.612,18.155,23.07,18.116,23.528z"/>
<linearGradient id="SVGID_6_" gradientUnits="userSpaceOnUse" x1="5.3148" y1="18.8292" x2="14.1575" y2="18.8292">
	<stop  offset="0" style="stop-color:#42D392"/>
	<stop  offset="0.133" style="stop-color:#43D095"/>
	<stop  offset="0.2476" style="stop-color:#47C8A0"/>
	<stop  offset="0.3554" style="stop-color:#4EB9B2"/>
	<stop  offset="0.4592" style="stop-color:#57A5CB"/>
	<stop  offset="0.559" style="stop-color:#628BEB"/>
	<stop  offset="0.5998" style="stop-color:#687FFA"/>
	<stop  offset="0.6719" style="stop-color:#7D82E1"/>
	<stop  offset="0.8254" style="stop-color:#B489A0"/>
	<stop  offset="1" style="stop-color:#F8924F"/>
</linearGradient>
<path style="fill:url(#SVGID_6_);" d="M13.204,24.564c-0.019,0.353-0.205,0.623-0.562,0.761c-0.392,0.151-0.732,0.049-1.02-0.246
	c-1.015-1.038-2.03-2.076-3.045-3.113c-0.935-0.955-1.87-1.911-2.807-2.864c-0.646-0.657-0.607-1.155,0.138-1.698
	c2.149-1.565,4.299-3.131,6.448-4.696c0.105-0.076,0.209-0.152,0.316-0.225c0.427-0.291,0.851-0.29,1.186,0.003
	c0.323,0.282,0.386,0.735,0.181,1.186c-0.125,0.275-0.343,0.455-0.577,0.625c-1.197,0.872-2.393,1.743-3.59,2.615
	c-1.174,0.856-1.302,2.276-0.291,3.316c1.042,1.072,2.089,2.139,3.139,3.202C13.028,23.739,13.24,24.079,13.204,24.564z"/>
</svg>
