<?xml version="1.0" encoding="utf-8"?>
<!-- Generator: Adobe Illustrator 23.0.3, SVG Export Plug-In . SVG Version: 6.00 Build 0)  -->
<svg version="1.1" id="Layer_1" xmlns="http://www.w3.org/2000/svg" xmlns:xlink="http://www.w3.org/1999/xlink" x="0px" y="0px"
	 viewBox="0 0 43.714 43.714" style="enable-background:new 0 0 43.714 43.714;" xml:space="preserve">
<style type="text/css">
	.st0{fill:url(#SVGID_2_);}
	.st1{clip-path:url(#SVGID_3_);fill:url(#SVGID_4_);}
	.st2{opacity:0.4;clip-path:url(#SVGID_3_);fill:url(#SVGID_6_);}
	.st3{fill:url(#SVGID_7_);}
	.st4{fill:#42D392;}
	.st5{fill:url(#SVGID_8_);}
	.st6{fill:#647EFF;}
	.st7{fill:#FDFDFE;}
	.st8{fill:url(#SVGID_9_);}
	.st9{fill:url(#SVGID_10_);}
	.st10{fill:url(#SVGID_11_);}
	.st11{fill:url(#SVGID_12_);}
	.st12{fill:url(#SVGID_13_);}
	.st13{fill:url(#SVGID_14_);}
	.st14{fill:url(#SVGID_15_);}
	.st15{fill:url(#SVGID_16_);}
	.st16{fill:url(#SVGID_17_);}
	.st17{fill:url(#SVGID_18_);}
	.st18{fill:url(#SVGID_19_);}
	.st19{fill:url(#SVGID_20_);}
	.st20{clip-path:url(#SVGID_22_);}
	.st21{fill:url(#SVGID_23_);}
	.st22{fill:url(#SVGID_24_);}
	.st23{fill:url(#SVGID_25_);}
	.st24{fill:url(#SVGID_26_);}
	.st25{fill:url(#SVGID_27_);}
	.st26{fill:none;}
	.st27{clip-path:url(#SVGID_29_);fill:url(#SVGID_30_);}
	.st28{clip-path:url(#SVGID_29_);}
	.st29{fill:url(#SVGID_31_);}
	.st30{fill:url(#SVGID_32_);}
	.st31{clip-path:url(#SVGID_29_);fill:url(#SVGID_33_);}
	.st32{clip-path:url(#SVGID_29_);fill:#FFFFFF;}
	.st33{clip-path:url(#SVGID_35_);fill:url(#SVGID_36_);}
	.st34{clip-path:url(#SVGID_35_);}
	.st35{fill:url(#SVGID_37_);}
	.st36{fill:#FFFFFF;}
	.st37{fill:url(#SVGID_38_);}
	.st38{fill:url(#SVGID_39_);}
	.st39{clip-path:url(#SVGID_41_);fill:url(#SVGID_42_);}
	.st40{clip-path:url(#SVGID_41_);}
	.st41{fill:url(#SVGID_43_);}
	.st42{fill:url(#SVGID_44_);}
	.st43{fill:url(#SVGID_45_);}
	.st44{clip-path:url(#SVGID_47_);}
	.st45{fill:url(#SVGID_48_);}
	.st46{fill:url(#SVGID_49_);}
	.st47{fill:url(#SVGID_50_);}
	.st48{fill:url(#SVGID_51_);}
</style>
<g>
	<defs>
		<path id="SVGID_40_" d="M32.036,43.714H11.679C5.229,43.714,0,38.486,0,32.036V11.679C0,5.229,5.229,0,11.679,0h20.357
			c6.45,0,11.679,5.229,11.679,11.679v20.357C43.714,38.486,38.486,43.714,32.036,43.714z"/>
	</defs>
	<clipPath id="SVGID_2_">
		<use xlink:href="#SVGID_40_"  style="overflow:visible;"/>
	</clipPath>
	<linearGradient id="SVGID_3_" gradientUnits="userSpaceOnUse" x1="21.8571" y1="0" x2="21.8571" y2="43.7143">
		<stop  offset="0" style="stop-color:#42D392"/>
		<stop  offset="0.514" style="stop-color:#34CAB1"/>
		<stop  offset="1" style="stop-color:#26C0D2"/>
	</linearGradient>
	<path style="clip-path:url(#SVGID_2_);fill:url(#SVGID_3_);" d="M32.277,43.714H11.438C5.147,43.714,0,38.567,0,32.277V11.438
		C0,5.147,5.147,0,11.438,0h20.839c6.291,0,11.438,5.147,11.438,11.438v20.839C43.714,38.567,38.567,43.714,32.277,43.714z"/>
	<g style="clip-path:url(#SVGID_2_);">
		<linearGradient id="SVGID_4_" gradientUnits="userSpaceOnUse" x1="18.0366" y1="6.4763" x2="18.0366" y2="34.7944">
			<stop  offset="0" style="stop-color:#42D392"/>
			<stop  offset="0.514" style="stop-color:#34CAB1"/>
			<stop  offset="1" style="stop-color:#26C0D2"/>
		</linearGradient>
		<path style="fill:url(#SVGID_4_);" d="M27.189,14.769l-4.147-8.293L8.884,34.794h8.293L27.189,14.769z"/>
		<path class="st36" d="M17.352,35.078H8.424L23.043,5.842l4.464,8.927L17.352,35.078z M9.342,34.511h7.66l9.869-19.741l-3.829-7.66
			L9.342,34.511z"/>
	</g>
	<g style="clip-path:url(#SVGID_2_);">
		<linearGradient id="SVGID_6_" gradientUnits="userSpaceOnUse" x1="5.5684" y1="20.4626" x2="25.2583" y2="20.4626">
			<stop  offset="0" style="stop-color:#42D392"/>
			<stop  offset="0.2217" style="stop-color:#43D095"/>
			<stop  offset="0.4128" style="stop-color:#47C8A0"/>
			<stop  offset="0.5926" style="stop-color:#4EB9B2"/>
			<stop  offset="0.7655" style="stop-color:#57A5CB"/>
			<stop  offset="0.9319" style="stop-color:#628BEB"/>
			<stop  offset="1" style="stop-color:#687FFA"/>
		</linearGradient>
		<path style="fill:url(#SVGID_6_);" d="M15.41,22.814c-0.045,0.535-0.083,1.07-0.137,1.604c-0.047,0.47-0.221,1.438-0.501,1.484
			c-0.433,0.071-1.05-0.494-1.371-0.822c-2.603-2.663-5.213-5.319-7.809-7.989c-0.037-0.038-0.032-0.095,0.011-0.126
			c2.981-2.179,5.972-4.346,8.954-6.524c0.397-0.29,1.309-1.102,1.667-0.66c0.241,0.171,0.195,1.164,0.146,1.677
			c-0.083,0.868-0.148,1.737-0.221,2.606c-0.07,0.831-0.066,0.814,0.784,0.968c1.371,0.248,2.712,0.61,3.975,1.211
			c4.042,1.924,5.471,6.183,3.416,10.178c-0.727,1.414-1.761,2.56-3.066,3.466c-0.396,0.275-2.008,1.685-2.111,1.329
			c-0.101-0.347,0.616-1.962,0.772-2.367c0.435-1.129,0.781-2.276,0.785-3.507c0.004-1.515-0.659-2.631-1.941-3.4
			c-0.872-0.523-1.836-0.8-2.816-1.033c-0.274-0.065-0.394-0.001-0.408,0.301C15.515,21.745,15.455,22.279,15.41,22.814z"/>
		<path class="st36" d="M19.23,31.556c-0.042,0-0.081-0.006-0.119-0.018c-0.115-0.037-0.201-0.125-0.235-0.243
			c-0.093-0.322,0.147-1.006,0.653-2.238c0.055-0.132,0.099-0.24,0.126-0.311c0.377-0.979,0.763-2.149,0.767-3.406
			c0.003-1.394-0.587-2.426-1.804-3.156c-0.849-0.509-1.817-0.782-2.736-1c-0.022-0.005-0.041-0.009-0.056-0.011
			c-0.002,0.013-0.003,0.03-0.004,0.05c-0.018,0.383-0.053,0.764-0.088,1.146l-0.081,0.957c-0.03,0.374-0.061,0.748-0.098,1.121
			c-0.062,0.613-0.238,1.654-0.737,1.735c-0.426,0.068-0.965-0.235-1.619-0.904l-2.51-2.564c-1.769-1.806-3.537-3.612-5.299-5.425
			l-0.09-0.092l-0.015-0.194c0.009-0.105,0.063-0.202,0.15-0.266c1.567-1.146,3.137-2.288,4.705-3.429
			c1.417-1.031,2.834-2.062,4.249-3.095l0.177-0.134c0.512-0.395,1.363-1.051,1.853-0.506c0.124,0.1,0.376,0.415,0.233,1.913
			c-0.056,0.588-0.104,1.178-0.151,1.768l-0.069,0.835c-0.02,0.237-0.04,0.482-0.014,0.539c0.041,0.032,0.282,0.076,0.515,0.118
			c1.65,0.298,2.936,0.69,4.098,1.244c2.021,0.962,3.489,2.548,4.138,4.466c0.65,1.927,0.44,4.092-0.592,6.097
			c-0.73,1.421-1.792,2.623-3.155,3.569c-0.089,0.062-0.24,0.182-0.422,0.326C20.011,31.23,19.54,31.556,19.23,31.556z
			 M15.783,20.602c0.083,0,0.163,0.015,0.229,0.03c0.964,0.229,1.982,0.518,2.896,1.066c1.384,0.83,2.083,2.056,2.079,3.644
			c-0.004,1.349-0.408,2.581-0.804,3.608c-0.028,0.073-0.074,0.186-0.131,0.323c-0.13,0.317-0.471,1.146-0.591,1.604
			c0.346-0.21,0.908-0.656,1.185-0.875c0.194-0.154,0.356-0.282,0.451-0.348c1.285-0.893,2.286-2.024,2.975-3.362
			c0.961-1.868,1.159-3.876,0.559-5.656c-0.599-1.772-1.964-3.241-3.845-4.136c-1.114-0.531-2.355-0.908-3.903-1.188
			c-0.997-0.18-1.096-0.31-1.016-1.271l0.068-0.834c0.048-0.592,0.097-1.184,0.152-1.775c0.079-0.833,0.021-1.342-0.047-1.437
			c-0.097-0.113-0.341-0.074-1.129,0.532l-0.188,0.143c-1.415,1.033-2.832,2.064-4.249,3.096c-1.507,1.096-3.014,2.193-4.519,3.292
			c1.709,1.757,3.423,3.508,5.138,5.259l2.511,2.565c0.575,0.589,0.969,0.762,1.121,0.741c0.046-0.07,0.204-0.626,0.265-1.232
			c0.037-0.37,0.067-0.74,0.097-1.11l0.082-0.964c0.034-0.373,0.069-0.745,0.086-1.119c0.004-0.086,0.016-0.349,0.213-0.498
			C15.567,20.625,15.678,20.602,15.783,20.602z"/>
	</g>
	<g style="clip-path:url(#SVGID_2_);">
		<linearGradient id="SVGID_7_" gradientUnits="userSpaceOnUse" x1="31.5612" y1="16.8198" x2="31.5612" y2="35.238">
			<stop  offset="0" style="stop-color:#42D392"/>
			<stop  offset="0.514" style="stop-color:#34CAB1"/>
			<stop  offset="1" style="stop-color:#26C0D2"/>
		</linearGradient>
		<path class="st3" d="M28.556,16.82l-2.19,4.326c0.406,1.667,0.192,3.515-0.732,5.312c-0.084,0.163-0.186,0.31-0.277,0.465
			l4.122,8.315h8.286L28.556,16.82z"/>
		<path class="st36" d="M38.224,35.522h-8.921l-4.269-8.61l0.183-0.304c0.058-0.091,0.115-0.183,0.165-0.28
			c0.867-1.687,1.112-3.455,0.709-5.115l-0.024-0.102l2.491-4.922L38.224,35.522z M29.655,34.954h7.651l-8.752-17.503l-1.888,3.731
			c0.401,1.764,0.133,3.63-0.78,5.406c-0.058,0.111-0.122,0.216-0.188,0.32l-0.019,0.03L29.655,34.954z"/>
	</g>
</g>
</svg>
