<?xml version="1.0" encoding="utf-8"?>
<!-- Generator: Adobe Illustrator 23.0.3, SVG Export Plug-In . SVG Version: 6.00 Build 0)  -->
<svg version="1.1" id="Layer_1" xmlns="http://www.w3.org/2000/svg" xmlns:xlink="http://www.w3.org/1999/xlink" x="0px" y="0px"
	 viewBox="0 0 43.714 43.714" style="enable-background:new 0 0 43.714 43.714;" xml:space="preserve">
<style type="text/css">
	.st0{fill:url(#SVGID_2_);}
	.st1{clip-path:url(#SVGID_3_);fill:url(#SVGID_4_);}
	.st2{opacity:0.4;clip-path:url(#SVGID_3_);fill:url(#SVGID_6_);}
	.st3{fill:url(#SVGID_7_);}
	.st4{fill:#42D392;}
	.st5{fill:url(#SVGID_8_);}
	.st6{fill:#647EFF;}
	.st7{fill:#FDFDFE;}
	.st8{fill:url(#SVGID_9_);}
	.st9{fill:url(#SVGID_10_);}
	.st10{fill:url(#SVGID_11_);}
	.st11{fill:url(#SVGID_12_);}
	.st12{fill:url(#SVGID_13_);}
	.st13{fill:url(#SVGID_14_);}
	.st14{fill:url(#SVGID_15_);}
	.st15{fill:url(#SVGID_16_);}
	.st16{fill:url(#SVGID_17_);}
	.st17{fill:url(#SVGID_18_);}
	.st18{fill:url(#SVGID_19_);}
	.st19{fill:url(#SVGID_20_);}
	.st20{clip-path:url(#SVGID_22_);}
	.st21{fill:url(#SVGID_23_);}
	.st22{fill:url(#SVGID_24_);}
	.st23{fill:url(#SVGID_25_);}
	.st24{fill:url(#SVGID_26_);}
	.st25{fill:url(#SVGID_27_);}
	.st26{fill:none;}
	.st27{clip-path:url(#SVGID_29_);fill:url(#SVGID_30_);}
	.st28{clip-path:url(#SVGID_29_);}
	.st29{fill:url(#SVGID_31_);}
	.st30{fill:url(#SVGID_32_);}
	.st31{clip-path:url(#SVGID_29_);fill:url(#SVGID_33_);}
	.st32{clip-path:url(#SVGID_29_);fill:#FFFFFF;}
	.st33{clip-path:url(#SVGID_35_);fill:url(#SVGID_36_);}
	.st34{clip-path:url(#SVGID_35_);}
	.st35{fill:url(#SVGID_37_);}
	.st36{fill:#FFFFFF;}
	.st37{fill:url(#SVGID_38_);}
	.st38{fill:url(#SVGID_39_);}
	.st39{clip-path:url(#SVGID_41_);}
	.st40{fill:url(#SVGID_42_);}
	.st41{fill:url(#SVGID_43_);}
	.st42{fill:url(#SVGID_44_);}
	.st43{fill:url(#SVGID_45_);}
</style>
<g>
	<defs>
		<path id="SVGID_21_" d="M38.089,43.714H5.625C2.518,43.714,0,41.196,0,38.089V5.625C0,2.518,2.518,0,5.625,0h32.464
			c3.107,0,5.625,2.518,5.625,5.625v32.464C43.714,41.196,41.196,43.714,38.089,43.714z"/>
	</defs>
	<clipPath id="SVGID_2_">
		<use xlink:href="#SVGID_21_"  style="overflow:visible;"/>
	</clipPath>
	<g style="clip-path:url(#SVGID_2_);">
		
			<linearGradient id="SVGID_3_" gradientUnits="userSpaceOnUse" x1="16.3607" y1="36.2396" x2="24.3568" y2="36.2396" gradientTransform="matrix(-0.6401 -0.7683 0.7683 -0.6401 7.044 74.3753)">
			<stop  offset="0" style="stop-color:#42D392"/>
			<stop  offset="0.23" style="stop-color:#36C092"/>
			<stop  offset="0.6942" style="stop-color:#178F92"/>
			<stop  offset="1" style="stop-color:#006B92"/>
		</linearGradient>
		<path style="fill:url(#SVGID_3_);" d="M21.857,35.538l2.614-3.025c0.165,0.143,0.318,0.298,0.457,0.466
			c1.404,1.685,1.172,4.227-0.513,5.631s-4.227,1.172-5.631-0.513c-1.404-1.685-1.172-4.227,0.513-5.631L21.857,35.538z"/>
		<linearGradient id="SVGID_4_" gradientUnits="userSpaceOnUse" x1="24.8661" y1="46.2588" x2="12.9695" y2="19.6775">
			<stop  offset="0" style="stop-color:#42D392"/>
			<stop  offset="0.23" style="stop-color:#36C092"/>
			<stop  offset="0.6942" style="stop-color:#178F92"/>
			<stop  offset="1" style="stop-color:#006B92"/>
		</linearGradient>
		<polygon style="fill:url(#SVGID_4_);" points="21.857,4.179 2.962,39.536 12.711,39.536 21.857,22.422 31.003,39.536 
			40.753,39.536 		"/>
		<linearGradient id="SVGID_6_" gradientUnits="userSpaceOnUse" x1="14.8464" y1="4.1786" x2="14.8464" y2="39.5357">
			<stop  offset="0" style="stop-color:#42D392"/>
			<stop  offset="0.23" style="stop-color:#36C092"/>
			<stop  offset="0.6942" style="stop-color:#178F92"/>
			<stop  offset="1" style="stop-color:#006B92"/>
		</linearGradient>
		<polygon style="fill:url(#SVGID_6_);" points="21.857,4.179 2.962,39.536 12.71,39.536 26.731,13.299 		"/>
		<linearGradient id="SVGID_7_" gradientUnits="userSpaceOnUse" x1="3.9801" y1="22.7975" x2="28.3247" y2="22.7975">
			<stop  offset="0" style="stop-color:#067091"/>
			<stop  offset="0.172" style="stop-color:#2CAF92"/>
			<stop  offset="0.2821" style="stop-color:#42D392"/>
			<stop  offset="0.5113" style="stop-color:#42D392"/>
			<stop  offset="0.5279" style="stop-color:#42D392"/>
			<stop  offset="0.6032" style="stop-color:#40D092"/>
			<stop  offset="0.668" style="stop-color:#39C592"/>
			<stop  offset="0.7288" style="stop-color:#2EB391"/>
			<stop  offset="0.7863" style="stop-color:#1E9B91"/>
		</linearGradient>
		<path class="st3" d="M28.325,21.626v-0.035c-0.322,0.419-0.898,1-1.244,1.336c-0.006,0.015-0.017,0.03-0.024,0.045
			c-0.193,0.44-0.453,0.916-0.792,1.392c-0.337,0.477-0.765,0.946-1.265,1.378c-0.06,0.056-0.129,0.106-0.193,0.158
			c-0.033,0.026-0.066,0.053-0.099,0.078l-0.048,0.039c-0.017,0.013-0.035,0.025-0.052,0.038c-0.068,0.049-0.137,0.099-0.206,0.15
			l-0.052,0.038l-0.054,0.035c-0.036,0.024-0.072,0.047-0.108,0.07c-0.142,0.098-0.294,0.182-0.443,0.271
			c-0.076,0.043-0.155,0.083-0.233,0.124c-0.038,0.021-0.077,0.042-0.116,0.062c-0.04,0.019-0.08,0.038-0.12,0.057
			c-0.638,0.307-1.334,0.529-2.048,0.651c-0.089,0.014-0.178,0.028-0.269,0.042c-0.09,0.012-0.181,0.019-0.27,0.029L20.556,27.6
			l-0.136,0.007l-0.136,0.008c-0.045,0.002-0.09,0.007-0.135,0.006c-0.09,0-0.18,0.001-0.271,0.002c-0.022,0-0.046,0.001-0.067,0
			l-0.06-0.003l-0.12-0.006l-0.12-0.006c-0.011,0-0.018,0-0.032-0.001l-0.123-0.009l-0.164-0.011l-0.123-0.009l-0.021-0.001
			l-0.007,0c0,0-0.043,0,0.029-0.001l-0.265-0.037c-0.044-0.007-0.088-0.011-0.131-0.02l-0.13-0.025l-0.13-0.025l-0.065-0.012
			c-0.022-0.004-0.043-0.01-0.064-0.015c-0.085-0.021-0.17-0.041-0.255-0.062c-0.043-0.009-0.084-0.023-0.126-0.035l-0.124-0.037
			l-0.124-0.035l-0.121-0.042c-0.081-0.029-0.162-0.054-0.24-0.085c-0.078-0.032-0.157-0.063-0.234-0.095
			c-0.618-0.262-1.174-0.6-1.647-0.987l-0.089-0.071l-0.085-0.076c-0.056-0.05-0.114-0.098-0.167-0.149
			c-0.002-0.002-0.004-0.004-0.006-0.006c-0.104-0.102-0.209-0.199-0.303-0.305c-0.025-0.026-0.049-0.052-0.073-0.078l-0.037-0.039
			l-0.034-0.041c-0.046-0.053-0.091-0.107-0.136-0.16c-0.011-0.013-0.023-0.026-0.034-0.039l-0.031-0.041
			c-0.021-0.028-0.042-0.055-0.063-0.082c-0.04-0.055-0.085-0.106-0.121-0.163c-0.307-0.438-0.541-0.876-0.7-1.293
			c-0.16-0.417-0.256-0.808-0.31-1.153c-0.006-0.043-0.012-0.086-0.018-0.128c-0.005-0.042-0.014-0.082-0.016-0.123
			c-0.007-0.081-0.014-0.159-0.021-0.233c-0.005-0.075-0.005-0.148-0.008-0.215c-0.001-0.034-0.004-0.067-0.004-0.099
			c0.001-0.033,0.002-0.065,0.003-0.095c0.001-0.062,0.002-0.12,0.003-0.174c0-0.015,0.002-0.023,0.003-0.034
			c0.001-0.01,0.003-0.02,0.004-0.03c0.002-0.019,0.005-0.017,0.006-0.034c0.001-0.015,0.003-0.022,0.005-0.022h3.027l-1.839-1.941
			l-4.275-4.452L3.98,21.179h3.215c0.005,0,0.01,0.053,0.015,0.094c0.012,0.089,0.026,0.176,0.04,0.281
			c0.008,0.053,0.016,0.102,0.024,0.158c0.005,0.028,0.009,0.054,0.013,0.083c0.004,0.028,0.008,0.059,0.014,0.084
			c0.023,0.106,0.046,0.218,0.071,0.337c0.013,0.059,0.026,0.12,0.04,0.182c0.015,0.062,0.032,0.125,0.05,0.19
			c0.035,0.129,0.069,0.265,0.111,0.404c0.045,0.139,0.092,0.283,0.14,0.433c0.023,0.075,0.054,0.149,0.083,0.226
			c0.029,0.075,0.059,0.153,0.089,0.232c0.25,0.624,0.59,1.303,1.046,1.986c0.454,0.683,1.032,1.364,1.718,1.995
			c0.083,0.081,0.175,0.155,0.264,0.232c0.045,0.038,0.09,0.077,0.135,0.115l0.068,0.058l0.07,0.055
			c0.094,0.073,0.189,0.147,0.284,0.221l0.072,0.055l0.074,0.053c0.05,0.035,0.1,0.07,0.15,0.106
			c0.196,0.143,0.407,0.272,0.617,0.405c0.106,0.065,0.215,0.125,0.324,0.188c0.054,0.031,0.109,0.061,0.163,0.093
			c0.056,0.029,0.112,0.058,0.168,0.087c0.895,0.467,1.883,0.821,2.909,1.033c0.128,0.024,0.257,0.049,0.386,0.073
			c0.129,0.023,0.26,0.039,0.389,0.057l0.195,0.026l0.196,0.018l0.196,0.018c0.065,0.006,0.13,0.013,0.196,0.015
			c0.131,0.006,0.262,0.021,0.393,0.026c0.032,0.001,0.065,0.013,0.098,0.013h0.098l0.195-0.011l0.195-0.006
			c0.065,0,0.131-0.008,0.195-0.011l0.389-0.022c0.088-0.001,0.03-0.002,0.053-0.003l0.01-0.001l0.021-0.002l0.04-0.005l0.082-0.01
			l0.163-0.019l0.082-0.01l0.04-0.005l0.05-0.007l0.206-0.029l0.206-0.03l0.102-0.015c0.034-0.005,0.063-0.012,0.096-0.018
			c0.126-0.025,0.251-0.051,0.377-0.076c0.063-0.012,0.124-0.029,0.186-0.044l0.185-0.047l0.184-0.047l0.182-0.055
			c0.12-0.037,0.241-0.072,0.36-0.113c0.118-0.042,0.235-0.084,0.353-0.126c0.93-0.352,1.779-0.822,2.509-1.368
			c0.046-0.034,0.091-0.068,0.137-0.102c0.045-0.035,0.088-0.07,0.132-0.106c0.087-0.071,0.175-0.139,0.259-0.212
			c0.166-0.148,0.331-0.291,0.483-0.445c0.039-0.038,0.076-0.076,0.115-0.113l0.057-0.056l0.054-0.058
			c0.072-0.078,0.143-0.155,0.214-0.232l0.053-0.058l0.051-0.06c0.033-0.04,0.066-0.079,0.099-0.119
			c0.065-0.079,0.134-0.155,0.193-0.236c0.333-0.429,0.616-0.863,0.849-1.291c0.114-0.208,0.216-0.415,0.305-0.619
			c0.277-0.624,0.455-1.218,0.567-1.748c0.012-0.067,0.026-0.132,0.038-0.196c0.012-0.064,0.026-0.127,0.034-0.189
			c0.017-0.125,0.035-0.244,0.051-0.359c0.014-0.116,0.021-0.227,0.031-0.332c0.004-0.053,0.01-0.104,0.013-0.155
			c0.002-0.05,0.013-0.099,0.015-0.147C28.309,21.802,28.325,21.71,28.325,21.626z"/>
		
			<linearGradient id="SVGID_8_" gradientUnits="userSpaceOnUse" x1="20.3849" y1="139.3915" x2="24.6968" y2="133.482" gradientTransform="matrix(1 0 0 -1 0 161.2714)">
			<stop  offset="0" style="stop-color:#42D392"/>
			<stop  offset="0.23" style="stop-color:#36C092"/>
			<stop  offset="0.6942" style="stop-color:#178F92"/>
			<stop  offset="1" style="stop-color:#006B92"/>
		</linearGradient>
		<path class="st5" d="M28.325,21.626v-0.035c-0.322,0.419-0.898,1-1.244,1.336c-0.006,0.015-0.017,0.03-0.024,0.045
			c-0.193,0.44-0.453,0.916-0.792,1.392c-0.337,0.477-0.765,0.946-1.265,1.378c-0.06,0.056-0.129,0.106-0.193,0.158
			c-0.033,0.026-0.066,0.053-0.099,0.078l-0.048,0.039c-0.017,0.013-0.035,0.025-0.052,0.038c-0.068,0.049-0.137,0.099-0.206,0.15
			l-0.052,0.038l-0.054,0.035c-0.036,0.024-0.072,0.047-0.108,0.07c-0.142,0.098-0.294,0.182-0.443,0.271
			c-0.076,0.043-0.155,0.083-0.233,0.124c-0.038,0.021-0.077,0.042-0.116,0.062c-0.04,0.019-0.08,0.038-0.12,0.057
			c-0.638,0.307-1.334,0.529-2.048,0.651c-0.089,0.014-0.178,0.028-0.269,0.042c-0.09,0.012-0.181,0.019-0.27,0.029L20.556,27.6
			l-0.136,0.007l-0.136,0.008c-0.045,0.002-0.09,0.007-0.135,0.006c-0.09,0-0.18,0.001-0.271,0.002c-0.022,0-0.046,0.001-0.067,0
			l-0.06-0.003l-0.12-0.006l-0.12-0.006c-0.011,0-0.018,0-0.032-0.001l-0.123-0.009l-0.164-0.011l-0.123-0.009l-0.021-0.001
			l-0.007,0c0,0-0.043,0,0.029-0.001l-0.265-0.037c-0.044-0.007-0.088-0.011-0.131-0.02l-0.13-0.025l-0.13-0.025l-0.065-0.012
			c-0.022-0.004-0.043-0.01-0.064-0.015c-0.085-0.021-0.17-0.041-0.255-0.062c-0.043-0.009-0.084-0.023-0.126-0.035l-0.124-0.037
			l-0.124-0.035l-0.121-0.042c-0.081-0.029-0.162-0.054-0.24-0.085c-0.078-0.032-0.157-0.063-0.234-0.095
			c-0.618-0.262-1.174-0.6-1.647-0.987l-0.089-0.071l-0.085-0.076c-0.056-0.05-0.114-0.098-0.167-0.149
			c-0.002-0.002-0.004-0.004-0.006-0.006c1.359,1.602,3.559,2.642,6.043,2.642c2.545,0,4.793-1.092,6.142-2.761
			c0.114-0.208,0.216-0.415,0.305-0.619c0.277-0.624,0.455-1.218,0.567-1.748c0.012-0.067,0.026-0.132,0.038-0.196
			c0.012-0.064,0.026-0.127,0.034-0.189c0.017-0.125,0.035-0.244,0.051-0.359c0.014-0.116,0.021-0.227,0.031-0.332
			c0.004-0.053,0.01-0.104,0.013-0.155c0.002-0.05,0.013-0.099,0.015-0.147C28.309,21.802,28.325,21.71,28.325,21.626z"/>
		<path id="SVGID_1_" class="st26" d="M18.73,31.065c-10.787,0-12.008-9.214-12.008-9.214H3.628v-0.837l6.082-8.364l7.431,9.71
			h-2.927l4.142,4.855c0,0,4.76-0.851,6.403-1.402c2.123-0.783,3.793-2.559,3.793-2.559S26.894,31.065,18.73,31.065z"/>
	</g>
</g>
</svg>
