<?xml version="1.0" encoding="utf-8"?>
<!-- Generator: Adobe Illustrator 23.0.3, SVG Export Plug-In . SVG Version: 6.00 Build 0)  -->
<svg version="1.1" id="Layer_1" xmlns="http://www.w3.org/2000/svg" xmlns:xlink="http://www.w3.org/1999/xlink" x="0px" y="0px"
	 viewBox="0 0 43.714 43.714" style="enable-background:new 0 0 43.714 43.714;" xml:space="preserve">
<style type="text/css">
	.st0{fill:url(#SVGID_2_);}
	.st1{clip-path:url(#SVGID_3_);fill:url(#SVGID_4_);}
	.st2{opacity:0.4;clip-path:url(#SVGID_3_);fill:url(#SVGID_6_);}
	.st3{fill:url(#SVGID_7_);}
	.st4{fill:#42D392;}
	.st5{fill:url(#SVGID_8_);}
	.st6{fill:#647EFF;}
	.st7{fill:#FDFDFE;}
	.st8{fill:url(#SVGID_9_);}
	.st9{fill:url(#SVGID_10_);}
	.st10{fill:url(#SVGID_11_);}
	.st11{fill:url(#SVGID_12_);}
	.st12{fill:url(#SVGID_13_);}
	.st13{fill:url(#SVGID_14_);}
	.st14{fill:url(#SVGID_15_);}
	.st15{fill:url(#SVGID_16_);}
	.st16{fill:url(#SVGID_17_);}
	.st17{fill:url(#SVGID_18_);}
	.st18{fill:url(#SVGID_19_);}
	.st19{fill:url(#SVGID_20_);}
	.st20{clip-path:url(#SVGID_22_);}
	.st21{fill:url(#SVGID_23_);}
	.st22{fill:url(#SVGID_24_);}
	.st23{fill:url(#SVGID_25_);}
	.st24{fill:url(#SVGID_26_);}
	.st25{fill:url(#SVGID_27_);}
	.st26{fill:none;}
	.st27{clip-path:url(#SVGID_29_);fill:url(#SVGID_30_);}
	.st28{clip-path:url(#SVGID_29_);}
	.st29{fill:url(#SVGID_31_);}
	.st30{fill:url(#SVGID_32_);}
	.st31{clip-path:url(#SVGID_29_);fill:url(#SVGID_33_);}
	.st32{clip-path:url(#SVGID_29_);fill:#FFFFFF;}
	.st33{clip-path:url(#SVGID_35_);fill:url(#SVGID_36_);}
	.st34{clip-path:url(#SVGID_35_);}
	.st35{fill:url(#SVGID_37_);}
	.st36{fill:#FFFFFF;}
	.st37{fill:url(#SVGID_38_);}
	.st38{fill:url(#SVGID_39_);}
	.st39{clip-path:url(#SVGID_41_);}
	.st40{fill:url(#SVGID_42_);}
	.st41{fill:url(#SVGID_43_);}
	.st42{fill:url(#SVGID_44_);}
	.st43{fill:url(#SVGID_45_);}
</style>
<g>
	<defs>
		<path id="SVGID_34_" d="M32.036,43.714H11.679C5.229,43.714,0,38.486,0,32.036V11.679C0,5.229,5.229,0,11.679,0h20.357
			c6.45,0,11.679,5.229,11.679,11.679v20.357C43.714,38.486,38.486,43.714,32.036,43.714z"/>
	</defs>
	<clipPath id="SVGID_2_">
		<use xlink:href="#SVGID_34_"  style="overflow:visible;"/>
	</clipPath>
	<linearGradient id="SVGID_3_" gradientUnits="userSpaceOnUse" x1="21.8571" y1="0" x2="21.8571" y2="43.7143">
		<stop  offset="0" style="stop-color:#42D392"/>
		<stop  offset="0.514" style="stop-color:#34CAB1"/>
		<stop  offset="1" style="stop-color:#26C0D2"/>
	</linearGradient>
	<path style="clip-path:url(#SVGID_2_);fill:url(#SVGID_3_);" d="M32.277,43.714H11.438C5.147,43.714,0,38.567,0,32.277V11.438
		C0,5.147,5.147,0,11.438,0h20.839c6.291,0,11.438,5.147,11.438,11.438v20.839C43.714,38.567,38.567,43.714,32.277,43.714z"/>
	<g style="clip-path:url(#SVGID_2_);">
		<g>
			<linearGradient id="SVGID_4_" gradientUnits="userSpaceOnUse" x1="18.2102" y1="6.2652" x2="18.2102" y2="35.4491">
				<stop  offset="0" style="stop-color:#42D392"/>
				<stop  offset="0.514" style="stop-color:#34CAB1"/>
				<stop  offset="1" style="stop-color:#26C0D2"/>
			</linearGradient>
			<path style="fill:url(#SVGID_4_);" d="M27.643,14.812l-4.273-8.547L8.778,35.449h8.547L27.643,14.812z"/>
			<path class="st36" d="M17.499,35.733h-9.18L23.37,5.631l4.591,9.181L17.499,35.733z M9.237,35.166h7.912l10.177-20.354
				L23.37,6.899L9.237,35.166z"/>
		</g>
		<g>
			<linearGradient id="SVGID_6_" gradientUnits="userSpaceOnUse" x1="30.6654" y1="14.8119" x2="30.6654" y2="35.4491">
				<stop  offset="0" style="stop-color:#42D392"/>
				<stop  offset="0.514" style="stop-color:#34CAB1"/>
				<stop  offset="1" style="stop-color:#26C0D2"/>
			</linearGradient>
			<path style="fill:url(#SVGID_6_);" d="M37.961,35.449L27.643,14.812l-4.273,8.442l6.045,12.195H37.961z"/>
			<path class="st36" d="M38.42,35.733h-9.182l-6.187-12.48l4.593-9.072L38.42,35.733z M29.59,35.166h7.912l-9.861-19.723
				l-3.954,7.813L29.59,35.166z"/>
		</g>
		<g>
			<linearGradient id="SVGID_7_" gradientUnits="userSpaceOnUse" x1="5.7529" y1="19.9389" x2="25.5459" y2="19.9389">
				<stop  offset="0" style="stop-color:#42D392"/>
				<stop  offset="0.2217" style="stop-color:#43D095"/>
				<stop  offset="0.4128" style="stop-color:#47C8A0"/>
				<stop  offset="0.5926" style="stop-color:#4EB9B2"/>
				<stop  offset="0.7655" style="stop-color:#57A5CB"/>
				<stop  offset="0.9319" style="stop-color:#628BEB"/>
				<stop  offset="1" style="stop-color:#687FFA"/>
			</linearGradient>
			<path class="st3" d="M15.397,22.67c-0.047,0.551-0.086,1.103-0.141,1.653c-0.048,0.484-0.271,0.859-0.755,1.016
				c-0.457,0.148-0.842,0.005-1.173-0.334c-2.367-2.421-4.739-4.837-7.102-7.262c-0.682-0.7-0.622-1.329,0.167-1.905
				c2.708-1.975,5.42-3.943,8.127-5.919c0.409-0.299,0.83-0.431,1.299-0.18c0.49,0.263,0.62,0.699,0.57,1.228
				c-0.085,0.894-0.153,1.79-0.228,2.686c-0.072,0.857-0.069,0.839,0.808,0.998c1.413,0.256,2.795,0.629,4.096,1.248
				c4.166,1.983,5.638,6.372,3.521,10.489c-0.749,1.457-1.815,2.639-3.16,3.572c-0.408,0.283-0.822,0.478-1.273,0.108
				c-0.426-0.349-0.268-0.761-0.107-1.179c0.448-1.164,0.805-2.345,0.809-3.614c0.004-1.561-0.68-2.712-2.001-3.504
				c-0.899-0.539-1.892-0.825-2.902-1.065c-0.283-0.067-0.406-0.001-0.421,0.311C15.504,21.569,15.443,22.119,15.397,22.67z"/>
			<path class="st36" d="M20.667,30.553c-0.218,0-0.455-0.07-0.694-0.266c-0.584-0.478-0.358-1.067-0.193-1.497
				c0.39-1.011,0.787-2.216,0.791-3.516c0.004-1.439-0.605-2.505-1.863-3.26c-0.877-0.526-1.875-0.807-2.822-1.032
				c-0.028-0.007-0.05-0.011-0.066-0.013c-0.002,0.015-0.004,0.035-0.005,0.06c-0.018,0.391-0.054,0.779-0.089,1.168l-0.088,1.023
				c-0.03,0.377-0.061,0.755-0.099,1.131c-0.063,0.642-0.392,1.077-0.949,1.257c-0.37,0.119-0.925,0.146-1.464-0.405l-2.82-2.882
				c-1.429-1.459-2.857-2.918-4.283-4.38c-0.397-0.408-0.581-0.817-0.548-1.217c0.034-0.401,0.287-0.776,0.751-1.114l3.644-2.653
				c1.495-1.088,2.99-2.176,4.483-3.266c0.563-0.411,1.087-0.476,1.6-0.2c0.544,0.291,0.785,0.797,0.719,1.503
				c-0.059,0.619-0.109,1.238-0.159,1.857l-0.068,0.827c-0.021,0.247-0.042,0.502-0.014,0.56c0.044,0.037,0.295,0.082,0.538,0.126
				c1.699,0.308,3.023,0.711,4.22,1.281c2.08,0.99,3.593,2.623,4.259,4.598c0.67,1.983,0.454,4.212-0.608,6.277
				c-0.753,1.465-1.847,2.702-3.251,3.675C21.405,30.318,21.067,30.553,20.667,30.553z M15.781,20.399
				c0.085,0,0.167,0.015,0.234,0.031c0.992,0.236,2.04,0.532,2.982,1.098c1.425,0.854,2.144,2.115,2.139,3.749
				c-0.004,1.392-0.421,2.659-0.827,3.715c-0.178,0.464-0.222,0.657,0.022,0.857c0.264,0.215,0.49,0.185,0.931-0.122
				c1.327-0.92,2.36-2.087,3.07-3.468c0.991-1.927,1.195-4,0.575-5.836c-0.617-1.828-2.025-3.343-3.966-4.267
				c-1.148-0.547-2.428-0.936-4.025-1.226c-1.021-0.184-1.122-0.316-1.039-1.3l0.067-0.825c0.051-0.622,0.102-1.243,0.16-1.864
				c0.046-0.483-0.081-0.768-0.422-0.951c-0.315-0.171-0.614-0.122-0.998,0.159c-1.493,1.09-2.988,2.178-4.483,3.266l-3.644,2.653
				c-0.325,0.237-0.5,0.474-0.52,0.704C6.019,17,6.15,17.26,6.427,17.545c1.425,1.462,2.854,2.921,4.281,4.379l2.821,2.882
				c0.278,0.285,0.56,0.368,0.884,0.263c0.341-0.111,0.519-0.357,0.56-0.774c0.038-0.373,0.068-0.747,0.098-1.12l0.088-1.029
				c0.035-0.38,0.07-0.76,0.088-1.142c0.004-0.087,0.016-0.355,0.216-0.506C15.562,20.423,15.674,20.399,15.781,20.399z"/>
		</g>
	</g>
</g>
</svg>
